<?xml version="1.0" ?><!DOCTYPE svg  PUBLIC '-//W3C//DTD SVG 1.1//EN'  'http://www.w3.org/Graphics/SVG/1.1/DTD/svg11.dtd'><svg enable-background="new 0 0 64 64" version="1.1" viewBox="0 0 64 64" xml:space="preserve" xmlns="http://www.w3.org/2000/svg" xmlns:xlink="http://www.w3.org/1999/xlink"><g id="Layer_1"/><g id="Layer_3"><g><path d="M58.1,27c0-1.9-1.5-3.4-3.4-3.4H9.4c-1.9,0-3.4,1.5-3.4,3.4c0,1.8,1.4,3.3,3.2,3.4v22.4c-1.8,0.1-3.2,1.6-3.2,3.4    c0,1.9,1.5,3.4,3.4,3.4h45.2c1.9,0,3.4-1.5,3.4-3.4c0-1.8-1.4-3.3-3.2-3.4V30.4C56.6,30.3,58.1,28.8,58.1,27z M11.2,34.6l7.4,18.2    h-7.4V34.6z M11.6,30.4h18.7L20.1,51.4L11.6,30.4z M32,31.7l10.3,21.1H21.7L32,31.7z M33.6,30.4h18.7l-8.5,20.9L33.6,30.4z     M52.8,34.6v18.2h-7.4L52.8,34.6z M7.9,27c0-0.8,0.6-1.4,1.4-1.4h45.2c0.8,0,1.4,0.6,1.4,1.4c0,0.8-0.6,1.4-1.4,1.4h-0.8h0    c0,0,0,0,0,0H10.2H9.4C8.6,28.4,7.9,27.8,7.9,27z M56.1,56.3c0,0.8-0.6,1.4-1.4,1.4H9.4c-0.8,0-1.4-0.6-1.4-1.4s0.6-1.4,1.4-1.4    h0.8h43.7h0.8C55.4,54.8,56.1,55.5,56.1,56.3z"/><path d="M38.9,18.4c0.5,1.2,1.4,2.2,2.6,2.8c0.7,0.4,1.6,0.6,2.4,0.6c1.9,0,3.6-1,4.4-2.6c1.2-2.4,0-5.3-2.5-6.6    C45,12.2,44.2,12,43.4,12c-1.5,0-2.9,0.7-3.8,1.8l-5.4-2.6l10.2-5c0.5-0.2,0.7-0.8,0.5-1.3c-0.2-0.5-0.8-0.7-1.3-0.5l-11.6,5.7    L20.3,4.4c-0.5-0.2-1.1,0-1.3,0.5s0,1.1,0.5,1.3l10.2,5l-5.4,2.6C23.3,12.7,22,12,20.4,12c-0.8,0-1.6,0.2-2.4,0.6    c-2.5,1.2-3.7,4.2-2.5,6.6c0.8,1.6,2.5,2.6,4.4,2.6c0,0,0,0,0,0c0.8,0,1.6-0.2,2.4-0.6c1.2-0.6,2.2-1.6,2.6-2.8    c0.4-0.9,0.4-1.9,0.2-2.8l6.8-3.3l6.8,3.3C38.5,16.5,38.6,17.5,38.9,18.4z M23,17.7c-0.3,0.8-0.9,1.4-1.7,1.8    c-0.5,0.2-1,0.4-1.5,0.4c0,0,0,0,0,0c-1.1,0-2.1-0.6-2.6-1.5c-0.7-1.4,0-3.1,1.6-3.9c0.5-0.2,1-0.4,1.5-0.4c1.1,0,2.1,0.6,2.6,1.5    C23.3,16.2,23.3,17,23,17.7z M43.4,14c0.5,0,1,0.1,1.5,0.4c1.6,0.8,2.3,2.5,1.6,3.9c-0.5,0.9-1.4,1.5-2.6,1.5    c-0.5,0-1-0.1-1.5-0.4c-0.8-0.4-1.4-1-1.7-1.8c-0.3-0.7-0.3-1.5,0.1-2.1C41.3,14.6,42.3,14,43.4,14z"/></g></g></svg>